<svg width="680" height="628" viewBox="0 0 680 628" xmlns="http://www.w3.org/2000/svg" role="img">
  <title>Holdit system workflow</title>
  <defs>
    <marker id="arrow" viewBox="0 0 10 10" refX="8" refY="5" markerWidth="6" markerHeight="6" orient="auto-start-reverse">
      <path d="M2 1L8 5L2 9" fill="none" stroke="#888780" stroke-width="1.5" stroke-linecap="round" stroke-linejoin="round"/>
    </marker>
  </defs>
  <style>
    text { font-family: -apple-system, "Segoe UI", Roboto, Helvetica, Arial, sans-serif; }
    .th { font-size: 14px; font-weight: 600; }
    .ts { font-size: 12px; font-weight: 400; }
  </style>

  <rect x="230" y="40" width="220" height="56" rx="8" fill="#F1EFE8" stroke="#5F5E5A" stroke-width="1"/>
  <text class="th" x="340" y="63" text-anchor="middle" fill="#444441">Login and signup</text>
  <text class="ts" x="340" y="83" text-anchor="middle" fill="#5F5E5A">Signup = employee only</text>

  <line x1="340" y1="96" x2="340" y2="132" stroke="#888780" stroke-width="1.5" marker-end="url(#arrow)"/>

  <rect x="230" y="136" width="220" height="56" rx="8" fill="#E1F5EE" stroke="#0F6E56" stroke-width="1"/>
  <text class="th" x="340" y="159" text-anchor="middle" fill="#085041">Organization setup</text>
  <text class="ts" x="340" y="179" text-anchor="middle" fill="#0F6E56">Departments, categories, roles</text>

  <line x1="340" y1="192" x2="340" y2="228" stroke="#888780" stroke-width="1.5" marker-end="url(#arrow)"/>

  <rect x="230" y="232" width="220" height="56" rx="8" fill="#E1F5EE" stroke="#0F6E56" stroke-width="1"/>
  <text class="th" x="340" y="255" text-anchor="middle" fill="#085041">Register asset</text>
  <text class="ts" x="340" y="275" text-anchor="middle" fill="#0F6E56">Auto tag, starts available</text>

  <path d="M340 288 L340 314 L135 314 L135 336" fill="none" stroke="#888780" stroke-width="1.5" marker-end="url(#arrow)"/>
  <line x1="340" y1="288" x2="340" y2="336" stroke="#888780" stroke-width="1.5" marker-end="url(#arrow)"/>
  <path d="M340 288 L340 314 L545 314 L545 336" fill="none" stroke="#888780" stroke-width="1.5" marker-end="url(#arrow)"/>

  <rect x="40" y="340" width="190" height="56" rx="8" fill="#E1F5EE" stroke="#0F6E56" stroke-width="1"/>
  <text class="th" x="135" y="363" text-anchor="middle" fill="#085041">Allocate and transfer</text>
  <text class="ts" x="135" y="383" text-anchor="middle" fill="#0F6E56">Conflict block, returns</text>

  <rect x="250" y="340" width="180" height="56" rx="8" fill="#E1F5EE" stroke="#0F6E56" stroke-width="1"/>
  <text class="th" x="340" y="363" text-anchor="middle" fill="#085041">Book resources</text>
  <text class="ts" x="340" y="383" text-anchor="middle" fill="#0F6E56">Overlaps rejected</text>

  <rect x="450" y="340" width="190" height="56" rx="8" fill="#E1F5EE" stroke="#0F6E56" stroke-width="1"/>
  <text class="th" x="545" y="363" text-anchor="middle" fill="#085041">Maintenance kanban</text>
  <text class="ts" x="545" y="383" text-anchor="middle" fill="#0F6E56">Drag through approval</text>

  <path d="M135 396 L135 416 L340 416 L340 432" fill="none" stroke="#888780" stroke-width="1.5" marker-end="url(#arrow)"/>
  <path d="M545 396 L545 416 L340 416" fill="none" stroke="#888780" stroke-width="1.5"/>

  <rect x="230" y="436" width="220" height="56" rx="8" fill="#EEEDFE" stroke="#534AB7" stroke-width="1"/>
  <text class="th" x="340" y="459" text-anchor="middle" fill="#3C3489">Audit cycle</text>
  <text class="ts" x="340" y="479" text-anchor="middle" fill="#534AB7">Missing becomes lost, locks</text>

  <line x1="340" y1="492" x2="340" y2="528" stroke="#888780" stroke-width="1.5" marker-end="url(#arrow)"/>

  <rect x="220" y="532" width="240" height="56" rx="8" fill="#F1EFE8" stroke="#5F5E5A" stroke-width="1"/>
  <text class="th" x="340" y="555" text-anchor="middle" fill="#444441">Dashboard and reports</text>
  <text class="ts" x="340" y="575" text-anchor="middle" fill="#5F5E5A">KPIs, alerts, activity log</text>
</svg>
